{"accessors":[{"bufferView":0,"componentType":5125,"count":72,"max":[71.0],"min":[0.0],"type":"SCALAR"},{"bufferView":1,"componentType":5126,"count":72,"max":[0.5,2.8088529109954836,0.6516249179840088],"min":[-0.5,1.7218859195709229,-2.3042004108428957],"type":"VEC3"},{"bufferView":2,"componentType":5126,"count":72,"max":[1.0,1.0,1.0],"min":[-1.0,-1.0,-1.0],"type":"VEC3"},{"bufferView":3,"componentType":5126,"count":72,"max":[0.875,1.0],"min":[0.125,0.0],"type":"VEC2"},{"bufferView":4,"componentType":5125,"count":2880,"max":[2875.0],"min":[0.0],"type":"SCALAR"},{"bufferView":5,"componentType":5126,"count":2880,"max":[0.44072970747947695,4.222343444824219,-3.7817912101745607],"min":[-0.44072970747947695,2.1665802001953127,-6.445969104766846],"type":"VEC3"},{"bufferView":6,"componentType":5126,"count":2880,"max":[1.0,1.0,1.0],"min":[-1.0,-1.0,-1.0],"type":"VEC3"},{"bufferView":7,"componentType":5126,"count":2880,"max":[0.65625,1.0000001192092896],"min":[0.3437499701976776,0.0],"type":"VEC2"},{"bufferView":8,"componentType":5125,"count":13500,"max":[13499.0],"min":[0.0],"type":"SCALAR"},{"bufferView":9,"componentType":5126,"count":13500,"max":[0.5,3.725290298461914e-9,0.5],"min":[-0.5,-0.12416255474090576,-0.5],"type":"VEC3"},{"bufferView":10,"componentType":5126,"count":13500,"max":[0.4338070750236511,1.0,0.4338114559650421],"min":[-0.43380698561668398,0.900971531867981,-0.433811217546463],"type":"VEC3"},{"bufferView":11,"componentType":5126,"count":13500,"max":[1.0,1.0],"min":[0.0,0.0],"type":"VEC2"},{"bufferView":12,"componentType":5125,"count":2280,"max":[2279.0],"min":[0.0],"type":"SCALAR"},{"bufferView":13,"componentType":5126,"count":2280,"max":[1.0,1.0,1.0000001192092896],"min":[-1.000000238418579,-1.0,-1.0000004768371583],"type":"VEC3"},{"bufferView":14,"componentType":5126,"count":2280,"max":[1.0,1.0,1.0],"min":[-1.0,-1.0,-1.0],"type":"VEC3"},{"bufferView":15,"componentType":5126,"count":2280,"max":[1.0000001192092896,1.0],"min":[0.0,0.0],"type":"VEC2"},{"bufferView":16,"componentType":5125,"count":62904,"max":[62903.0],"min":[0.0],"type":"SCALAR"},{"bufferView":17,"componentType":5126,"count":62904,"max":[1.6519182920455933,2.1707258224487306,1.6521092653274537],"min":[-1.6520888805389405,-2.170728921890259,-1.6520512104034424],"type":"VEC3"},{"bufferView":18,"componentType":5126,"count":62904,"max":[0.9999791383743286,0.9824368357658386,0.9999974370002747],"min":[-0.9999960660934448,-0.9825263619422913,-0.9999947547912598],"type":"VEC3"},{"bufferView":19,"componentType":5126,"count":62904,"max":[0.6249997615814209,0.6875],"min":[0.375,0.31156158447265627],"type":"VEC2"},{"bufferView":20,"componentType":5126,"count":750,"max":[25.0],"min":[0.03333333507180214],"type":"SCALAR"},{"bufferView":21,"componentType":5126,"count":750,"max":[0.0,-1.734723475976807e-18,0.07043298333883286],"min":[0.0,-1.734723475976807e-18,0.07043298333883286],"type":"VEC3"},{"bufferView":22,"componentType":5126,"count":750,"max":[-0.7071067690849304,0.0,0.0,-0.7071067690849304],"min":[-0.7071067690849304,0.0,0.0,-0.7071067690849304],"type":"VEC4"},{"bufferView":23,"componentType":5126,"count":750,"max":[0.009999999776482582,0.009999999776482582,0.009999999776482582],"min":[0.009999999776482582,0.009999999776482582,0.009999999776482582],"type":"VEC3"},{"bufferView":24,"componentType":5126,"count":750,"max":[-0.00013758080604020506,-0.00026624329620972276,0.02767445333302021],"min":[-0.00013758080604020506,-0.00026624329620972276,0.02767445333302021],"type":"VEC3"},{"bufferView":25,"componentType":5126,"count":750,"max":[-0.7071067690849304,0.0,0.0,-0.7071067690849304],"min":[-0.7071067690849304,0.0,0.0,-0.7071067690849304],"type":"VEC4"},{"bufferView":26,"componentType":5126,"count":750,"max":[0.009999999776482582,0.009999999776482582,0.009999999776482582],"min":[0.009999999776482582,0.009999999776482582,0.009999999776482582],"type":"VEC3"},{"bufferView":27,"componentType":5126,"count":750,"max":[0.0260614100843668,0.012370128184556961,-0.009963148273527623],"min":[0.0260614100843668,0.012370128184556961,-0.009963148273527623],"type":"VEC3"},{"bufferView":28,"componentType":5126,"count":750,"max":[-0.7071067690849304,0.0,0.0,-0.7071067690849304],"min":[-0.7071067690849304,0.0,0.0,-0.7071067690849304],"type":"VEC4"},{"bufferView":29,"componentType":5126,"count":750,"max":[0.03163585066795349,0.03163585066795349,0.03163585066795349],"min":[0.03163585066795349,0.03163585066795349,0.03163585066795349],"type":"VEC3"},{"bufferView":30,"componentType":5126,"count":750,"max":[0.030190326273441316,0.04929821938276291,0.10313349217176438],"min":[-0.0006902115419507027,0.011220629326999188,-0.011727839708328247],"type":"VEC3"},{"bufferView":31,"componentType":5126,"count":750,"max":[0.9147422313690186,0.7677465677261353,0.9943557381629944,-0.0019041788764297963],"min":[-0.9213099479675293,-0.9242252707481384,-0.9995837807655335,-0.9776062369346619],"type":"VEC4"},{"bufferView":32,"componentType":5126,"count":750,"max":[0.0021474515087902548,0.0021474515087902548,0.0021474515087902548],"min":[0.0021474515087902548,0.0021474515087902548,0.0021474515087902548],"type":"VEC3"},{"bufferView":33,"componentType":5126,"count":750,"max":[0.017914094030857087,0.02815961092710495,0.013886655680835247],"min":[0.017914094030857087,0.02815961092710495,0.013886655680835247],"type":"VEC3"},{"bufferView":34,"componentType":5126,"count":750,"max":[-0.7071067690849304,0.0,0.0,-0.7071067690849304],"min":[-0.7071067690849304,0.0,0.0,-0.7071067690849304],"type":"VEC4"},{"bufferView":35,"componentType":5126,"count":750,"max":[0.009999999776482582,0.009999999776482582,0.009999999776482582],"min":[0.009999999776482582,0.009999999776482582,0.009999999776482582],"type":"VEC3"}],"animations":[{"name":"Take 001","channels":[{"sampler":0,"target":{"node":6,"path":"scale"}},{"sampler":1,"target":{"node":6,"path":"translation"}},{"sampler":2,"target":{"node":6,"path":"rotation"}},{"sampler":3,"target":{"node":10,"path":"scale"}},{"sampler":4,"target":{"node":10,"path":"translation"}},{"sampler":5,"target":{"node":10,"path":"rotation"}},{"sampler":6,"target":{"node":14,"path":"scale"}},{"sampler":7,"target":{"node":14,"path":"translation"}},{"sampler":8,"target":{"node":14,"path":"rotation"}},{"sampler":9,"target":{"node":18,"path":"scale"}},{"sampler":10,"target":{"node":18,"path":"translation"}},{"sampler":11,"target":{"node":18,"path":"rotation"}},{"sampler":12,"target":{"node":22,"path":"scale"}},{"sampler":13,"target":{"node":22,"path":"translation"}},{"sampler":14,"target":{"node":22,"path":"rotation"}}],"samplers":[{"input":20,"interpolation":"LINEAR","output":23},{"input":20,"interpolation":"LINEAR","output":21},{"input":20,"interpolation":"LINEAR","output":22},{"input":20,"interpolation":"LINEAR","output":26},{"input":20,"interpolation":"LINEAR","output":24},{"input":20,"interpolation":"LINEAR","output":25},{"input":20,"interpolation":"LINEAR","output":29},{"input":20,"interpolation":"LINEAR","output":27},{"input":20,"interpolation":"LINEAR","output":28},{"input":20,"interpolation":"LINEAR","output":32},{"input":20,"interpolation":"LINEAR","output":30},{"input":20,"interpolation":"LINEAR","output":31},{"input":20,"interpolation":"LINEAR","output":35},{"input":20,"interpolation":"LINEAR","output":33},{"input":20,"interpolation":"LINEAR","output":34}]}],"asset":{"generator":"SimLab GLTF","version":"2.0"},"bufferViews":[{"buffer":0,"byteLength":288,"target":34963},{"buffer":0,"byteLength":864,"byteOffset":288,"byteStride":12,"target":34962},{"buffer":0,"byteLength":864,"byteOffset":1152,"byteStride":12,"target":34962},{"buffer":0,"byteLength":576,"byteOffset":2016,"byteStride":8,"target":34962},{"buffer":0,"byteLength":11520,"byteOffset":2592,"target":34963},{"buffer":0,"byteLength":34560,"byteOffset":14112,"byteStride":12,"target":34962},{"buffer":0,"byteLength":34560,"byteOffset":48672,"byteStride":12,"target":34962},{"buffer":0,"byteLength":23040,"byteOffset":83232,"byteStride":8,"target":34962},{"buffer":0,"byteLength":54000,"byteOffset":106272,"target":34963},{"buffer":0,"byteLength":162000,"byteOffset":160272,"byteStride":12,"target":34962},{"buffer":0,"byteLength":162000,"byteOffset":322272,"byteStride":12,"target":34962},{"buffer":0,"byteLength":108000,"byteOffset":484272,"byteStride":8,"target":34962},{"buffer":0,"byteLength":9120,"byteOffset":592272,"target":34963},{"buffer":0,"byteLength":27360,"byteOffset":601392,"byteStride":12,"target":34962},{"buffer":0,"byteLength":27360,"byteOffset":628752,"byteStride":12,"target":34962},{"buffer":0,"byteLength":18240,"byteOffset":656112,"byteStride":8,"target":34962},{"buffer":0,"byteLength":251616,"byteOffset":674352,"target":34963},{"buffer":0,"byteLength":754848,"byteOffset":925968,"byteStride":12,"target":34962},{"buffer":0,"byteLength":754848,"byteOffset":1680816,"byteStride":12,"target":34962},{"buffer":0,"byteLength":503232,"byteOffset":2435664,"byteStride":8,"target":34962},{"buffer":0,"byteLength":3000,"byteOffset":2938896,"byteStride":4},{"buffer":0,"byteLength":9000,"byteOffset":2941896,"byteStride":12},{"buffer":0,"byteLength":12000,"byteOffset":2950896,"byteStride":16},{"buffer":0,"byteLength":9000,"byteOffset":2962896,"byteStride":12},{"buffer":0,"byteLength":9000,"byteOffset":2971896,"byteStride":12},{"buffer":0,"byteLength":12000,"byteOffset":2980896,"byteStride":16},{"buffer":0,"byteLength":9000,"byteOffset":2992896,"byteStride":12},{"buffer":0,"byteLength":9000,"byteOffset":3001896,"byteStride":12},{"buffer":0,"byteLength":12000,"byteOffset":3010896,"byteStride":16},{"buffer":0,"byteLength":9000,"byteOffset":3022896,"byteStride":12},{"buffer":0,"byteLength":9000,"byteOffset":3031896,"byteStride":12},{"buffer":0,"byteLength":12000,"byteOffset":3040896,"byteStride":16},{"buffer":0,"byteLength":9000,"byteOffset":3052896,"byteStride":12},{"buffer":0,"byteLength":9000,"byteOffset":3061896,"byteStride":12},{"buffer":0,"byteLength":12000,"byteOffset":3070896,"byteStride":16},{"buffer":0,"byteLength":9000,"byteOffset":3082896,"byteStride":12}],"buffers":[{"byteLength":3091896,"uri":"ttgt.bin"}],"materials":[{"name":"VRayMtl7","alphaMode":"MASK","doubleSided":true,"pbrMetallicRoughness":{"baseColorFactor":[0.5,0.5,0.5,1.0],"roughnessFactor":0.9854999780654907}},{"name":"VRayMtl1","alphaMode":"MASK","doubleSided":true,"pbrMetallicRoughness":{"baseColorFactor":[0.5,0.5,0.5,1.0],"roughnessFactor":0.9854999780654907}},{"name":"VRayMtl2","alphaMode":"MASK","doubleSided":true,"pbrMetallicRoughness":{"baseColorFactor":[0.5,0.5,0.5,1.0],"roughnessFactor":0.9854999780654907}}],"meshes":[{"primitives":[{"attributes":{"NORMAL":2,"POSITION":1,"TEXCOORD_0":3},"indices":0,"material":0,"mode":4}]},{"primitives":[{"attributes":{"NORMAL":6,"POSITION":5,"TEXCOORD_0":7},"indices":4,"material":1,"mode":4}]},{"primitives":[{"attributes":{"NORMAL":10,"POSITION":9,"TEXCOORD_0":11},"indices":8,"material":1,"mode":4}]},{"primitives":[{"attributes":{"NORMAL":14,"POSITION":13,"TEXCOORD_0":15},"indices":12,"material":2,"mode":4}]},{"primitives":[{"attributes":{"NORMAL":18,"POSITION":17,"TEXCOORD_0":19},"indices":16,"material":1,"mode":4}]}],"nodes":[{"children":[1,2,3,4,5,6,10,14,18,22],"matrix":[1.0,0.0,0.0,0.0,0.0,4.4896593387466768e-11,-1.0,0.0,0.0,1.0,4.4896593387466768e-11,0.0,0.0,0.0,0.0,1.0]},{"name":"front","rotation":[-0.7071067690849304,0.0,0.0,-0.7071067690849304],"translation":[0.0,-10.00100040435791,0.0]},{"name":"persp","rotation":[-0.5549202561378479,-0.4639853537082672,-0.44291672110557558,-0.5297224521636963],"translation":[0.3360605537891388,-0.05170661583542824,0.07846853882074356]},{"name":"persp1","rotation":[-0.3554699718952179,-0.2930268347263336,-0.5645624995231628,-0.6848690509796143],"translation":[0.6806877255439758,-0.1005733534693718,0.548665463924408]},{"name":"side","rotation":[-0.5,-0.5,-0.5,-0.5],"translation":[10.00100040435791,0.0,0.0]},{"name":"top","rotation":[0.0,0.0,0.0,-1.0],"translation":[0.0,0.0,10.00100040435791]},{"name":"pCube2","children":[7],"rotation":[-0.7071067690849304,0.0,0.0,-0.7071067690849304],"scale":[0.009999999776482582,0.009999999776482582,0.009999999776482582],"translation":[0.0,-1.734723475976807e-18,0.07043299078941345]},{"name":"Assembly-2","children":[9],"rotation":[0.0,0.0,0.0,-1.0]},{"mesh":0},{"children":[8]},{"name":"group4","children":[11],"rotation":[-0.7071067690849304,0.0,0.0,-0.7071067690849304],"scale":[0.009999999776482582,0.009999999776482582,0.009999999776482582],"translation":[-0.00013758080604020506,-0.0002662433253135532,0.02767445333302021]},{"name":"Assembly-4","children":[13],"rotation":[0.0,0.0,0.0,-1.0]},{"mesh":1},{"children":[12]},{"name":"pPlane1","children":[15],"rotation":[-0.7071067690849304,0.0,0.0,-0.7071067690849304],"scale":[0.03163585066795349,0.03163585066795349,0.03163585066795349],"translation":[0.026061411947011949,0.012370128184556961,-0.009963148273527623]},{"name":"Assembly-6","children":[17],"rotation":[0.0,0.0,0.0,-1.0]},{"mesh":2},{"children":[16]},{"name":"pSphere2","children":[19],"rotation":[-0.7276033759117127,0.6654065847396851,0.1571492850780487,-0.05595984682440758],"scale":[0.0021474515087902548,0.0021474515087902548,0.0021474515087902548],"translation":[-0.000459439295809716,0.011220629326999188,0.10313349962234497]},{"name":"Assembly-8","children":[21],"rotation":[0.0,0.0,0.0,-1.0]},{"mesh":3},{"children":[20]},{"name":"pHelix2","children":[23],"rotation":[-0.7071067690849304,0.0,0.0,-0.7071067690849304],"scale":[0.009999999776482582,0.009999999776482582,0.009999999776482582],"translation":[0.017914094030857087,0.0281596127897501,0.013886655680835247]},{"name":"Assembly-10","children":[25],"rotation":[0.0,0.0,0.0,-1.0]},{"mesh":4},{"children":[24]}],"samplers":[{"wrapS":10497,"wrapT":10497}],"scene":0,"scenes":[{"nodes":[0]}]}